<svg width="651" height="291" viewBox="0 0 651 291" fill="none" xmlns="http://www.w3.org/2000/svg">
<rect y="144" width="75" height="75" fill="black"/>
<rect x="72" y="144" width="75" height="75" fill="black"/>
<rect x="72" y="72" width="75" height="75" fill="black"/>
<rect x="144" y="72" width="75" height="75" fill="black"/>
<rect x="144" width="75" height="75" fill="black"/>
<rect x="216" width="75" height="75" fill="black"/>
<rect x="216" y="72" width="75" height="75" fill="black"/>
<rect x="216" y="144" width="75" height="75" fill="black"/>
<rect x="288" width="75" height="75" fill="black"/>
<rect x="288" y="72" width="75" height="75" fill="black"/>
<rect x="288" y="144" width="75" height="75" fill="black"/>
<rect x="360" y="72" width="75" height="75" fill="black"/>
<rect x="360" y="144" width="75" height="75" fill="black"/>
<rect x="360" y="216" width="75" height="75" fill="black"/>
<rect x="432" y="216" width="75" height="75" fill="black"/>
<rect x="432" y="144" width="75" height="75" fill="black"/>
<rect x="504" y="144" width="75" height="75" fill="black"/>
<rect x="504" y="72" width="75" height="75" fill="black"/>
<rect x="576" y="72" width="75" height="75" fill="black"/>
<rect x="288" y="216" width="75" height="75" fill="black"/>
</svg>
